# xmcd
# 
# Track frame offsets:
#     182
#     9625
#     21415
#     31557
#     40735
#     53147
#     64527
#     73345
#     81465
#     92415
#     105127
#     113582
#     123415
#     133632
#     148215
#     162195
#     170560
#     181330
# 
# Disc length: 2636
# 
# Revision: 5
# Processed by: cddbd v1.5.2PL0 Copyright (c) Steve Scherf et al.
# Submitted via: fre:ac v1.0.17
# 
DISCID=ea0a4a12
DTITLE=Elvis Presley - The Number One Hits
DYEAR=1987
DGENRE=Rock and Roll
TTITLE0=Hearbreak Hotel
TTITLE1=I Want You, I Need You, I Love You
TTITLE2=Hound Dog
TTITLE3=Don't Be Cruel
TTITLE4=Love Me Tender
TTITLE5=Too Much
TTITLE6=All Shock Up
TTITLE7=(Let Me Be Your) Teddy Bear
TTITLE8=Jailhouse Rock
TTITLE9=Don't
TTITLE10=Hard Headed Woman
TTITLE11=A Big Hunk O' Love
TTITLE12=Stuck on You
TTITLE13=It's Now or Never
TTITLE14=Are You Lonesome Tonight?
TTITLE15=Surrender
TTITLE16=Good Luck Charm
TTITLE17=Suspicious Minds
EXTD=
EXTT0=
EXTT1=
EXTT2=
EXTT3=
EXTT4=
EXTT5=
EXTT6=
EXTT7=
EXTT8=
EXTT9=
EXTT10=
EXTT11=
EXTT12=
EXTT13=
EXTT14=
EXTT15=
EXTT16=
EXTT17=
PLAYORDER=
